<svg width="780" height="300" xmlns="http://www.w3.org/2000/svg"><style>@font-face{font-family:&quot;TTCommons&quot;;src:url(&quot;https://stately.ai/assets/ttcommons.woff2&quot;) format(&quot;woff2&quot;)}text{font-family:&quot;TTCommons&quot;,Arial,sans-serif;font-variation-settings:&apos;wght&apos; 450}</style><g fill="none" fill-rule="evenodd"><g id="asleep-awake"><path fill="#E3E9F3" d="M0 0h780v300H0z"/><g id="atomic-state" transform="translate(490 20)"><rect id="state" fill="#555762" x="0" y="0" width="150" height="50" rx="15"/><text id="label" font-family="TTCommons, Arial, sans-serif" font-size="30" font-weight="400" fill="#FFF"><tspan x="35" y="35">awake</tspan></text></g><g id="atomic-state" transform="translate(140 20)"><rect id="state" fill="#555762" x="0" y="0" width="150" height="50" rx="15"/><text id="label" font-family="TTCommons, Arial, sans-serif" font-size="30" font-weight="400" fill="#FFF"><tspan x="33" y="35">asleep</tspan></text></g><g id="dog-awake" transform="translate(500 120)"><path d="M67.806 152c-.569 0-1.142-.004-1.726-.012C29.216 151.476 0 137.05 0 132.108c0-4.944 8.996-6.215 36.75-6.215 27.748 0 53.117 10.267 57.735 12.618C104.009 143.358 94.25 152 67.806 152" id="Fill-4" fill-opacity=".25" fill="#000"/><path d="M27.843 76.723c3.503 2.453-4.335 3.51-6.324 2.695C13.727 76.214 5.54 65.085 2.863 57.004c-.572-1.727-.777-4.108.767-4.941 1.51-.816 3.297.583 4.297 2.012 6.263 8.949 12.87 17.713 19.916 22.648" id="Fill-5" fill="#CBCCD0"/><path d="M40.527 121.216c1.902 4.475 4.66 10.641 9.202 12.999 2.79 1.448 6.171.821 8.295-1.157.603-.56 1.128-1.237 1.37-2.055.24-.818.165-1.796-.343-2.555-.685-1.023-1.965-1.44-2.77-2.372-1.772-2.05-1.263-7.14-1.132-9.528.2-3.636.823-7.19 1.398-10.74.378-2.33.73-4.686.612-7.096-.267-5.396-2.924-10.692-6.502-14.972-4.277-5.114-14.554-10.735-18.821-3.723-1.867 3.068-.492 7.425.216 10.887.979 4.793 1.984 9.586 3.207 14.343 1.39 5.407 3.06 10.777 5.268 15.969" id="Fill-6" fill="#ABADB3"/><path d="M87.593 88.832a11.598 11.598 0 00-1.557 3.57c-.756 3.054-.563 6.19-.84 9.297-.74 8.33-4.775 14.008-5.488 14.66-2.87 2.626-4.754-2.354-8.073-.633-4.274 2.216-3.022 12.714 7.37 13.309 7.683.442 14.631-10.444 17.276-17.2 2.506-6.4 3.814-16.125 2.262-22.543-.695-2.88-3.087-4.532-6.522-3.773-1.856.411-3.357 1.698-4.428 3.313" id="Fill-7" fill="#FFFFFE"/><path d="M96.669 96.91c2.079-3.826 2.629-9.188.462-13.226-1.026-1.91-2.552-3.371-4.117-4.66-5.937-4.89-13.71-6.08-21.127-6.79-7.526-.721-16.02-2.124-23.52-3.202-13.155-1.893-25.717 2.684-27.213 5.308-2.29 4.016 1.785 10.304 1.351 14.794-.545 5.648-1.347 12.638 5.364 14.75 2.753.866 5.708.73 8.57 1.115 2.792.377 5.397 1.31 8.062 2.172 2.332.752 4.803.6 7.132 1.412 7.081 2.464 17.037 2.861 24.592 2.236 12-.992 16.055-5.829 20.444-13.908" id="Fill-8" fill="#FFFFFE"/><path d="M70.277 114.333c-2.053.777-3.556 2.715-4.042 4.85-.13.575-.195 1.17-.116 1.754.164 1.207.956 2.287 2 2.92 1.045.632 2.317.84 3.531.705 2.046-.23 3.978-1.47 4.932-3.289.87-1.657 1.04-4.403-.45-5.773-1.54-1.416-3.898-1.905-5.855-1.167" id="Fill-9" fill="#FFFFFE"/><path d="M54.178 105.338c-5.04-1.131-9.96-2.772-15.032-3.746-4.9-.94-10.248-1.098-15.22-.388.87 1.167 2.123 2.107 3.943 2.68 2.753.866 5.708.73 8.57 1.115 2.792.378 5.397 1.31 8.062 2.172 2.332.752 4.803.6 7.132 1.412 7.081 2.464 17.037 2.861 24.592 2.237 7.725-.64 12.155-2.874 15.505-6.54a76.674 76.674 0 01-37.552 1.058" id="Fill-10" fill="#CBCCD0"/><path d="M60.052 92.562s.924 18.39 11.97 48.093l-12.766 4.105s-16.605-34.1-16.878-61.326l17.674 9.128" id="Fill-11" fill="#FFFFFE"/><path d="M78.464 141.467c1.94 5.617-3.182 7.6-8.604 8.47-6.99 1.123-9.279-.693-10.686-4.127-1.401-3.428 1.775-7.183 7.102-8.383 5.327-1.2 10.987.556 12.188 4.04" id="Fill-12" fill="#FFFFFE"/><path d="M1.284 127.942c.859 1.847 2.204 3.595 6.766 3.27 4.028-.29 4.5-2.478 3.717-4.238-.368-.827-.897-.848-.978-2.282-.457-8.084-.467-9.982 3.737-13.676 1.21-1.063 3.595-.176 5.15-.146 4.622.089 9.066-2.867 11.744-6.816 3-4.423 4.832-9.917 5.5-15.271.569-4.555-.04-10.186-2.438-13.726-2.607-3.85-8.648-3.67-12.377-1.76-3.342 1.715-6.256 4.597-8.724 7.844C.003 98.74.475 126.205 1.284 127.942" id="Fill-13" fill="#FFFFFE"/><path d="M53.833 68.844c-1.163 3.165-1.239 8.742-.055 11.85 1.126 2.958 3.272 5.552 5.239 7.405 4.348 4.102 9.773 5.96 14.988 6.321 7.644.53 15.597.47 21.832-6.189 3.11-3.323 5.732-6.742 6.285-12.354 1.451-14.73-8.676-18.05-17.317-20.183-8.137-2.005-20.627-3.446-26.746 5.989-1.317 2.03-3.324 4.71-4.226 7.16" id="Fill-14" fill="#F26200"/><path d="M44.692 30.243c1.549-12.2 17.777-17.841 28.265-20.268 1.886-.436 4.147-.712 6.624-.832 2.467-.243 4.743-.3 6.675-.144 10.729.87 27.606 4.083 30.918 15.926 2.644 9.45-.957 19.755-4.2 29.641-1.48 4.514-3.041 9.074-3.156 13.347-.344 12.693-11.272 21.047-23.1 21.155-11.827.11-24.366-6.143-28.071-17.622-1.312-4.07-3.35-8.242-5.473-12.493-4.651-9.306-9.716-18.976-8.482-28.71" id="Fill-15" fill="#FFFFFE"/><path d="M58.093 69.834c-1.297-3.557-3.075-7.189-4.92-10.88-4.65-9.307-9.715-18.977-8.48-28.711.631-4.98 3.71-8.865 7.843-11.886 7.256 5.853 17.846 5.088 24.834 11.928 8.217 8.045 5.428 21.632-2.94 28.233-2.785 2.199-6.31 2.74-9.257 4.627-2.606 1.67-4.766 4.49-7.08 6.689" id="Fill-16" fill="#C17358"/><path d="M59.01 44.508c.339 4.61 2.724 8.191 5.329 8 2.605-.192 4.443-4.082 4.104-8.692-.338-4.608-2.723-8.19-5.329-7.999-2.605.191-4.441 4.083-4.104 8.691" id="Fill-17" fill="#0F0F0D"/><path d="M95.66 41.82c.338 4.608 2.724 8.19 5.328 8 2.606-.192 4.444-4.084 4.105-8.693-.338-4.608-2.724-8.19-5.33-8-2.604.192-4.442 4.084-4.104 8.692" id="Fill-18" fill="#0F0F0D"/><path d="M133.16 24.271c-.136 4.429-1.948 7.952-7 7.833-7.922-.187-28.77-15.105-30.646-16.518-2.36-1.78-4.787-3.719-2.773-7.135 2.283-3.867 8.819-5.745 12.856-7.046 17.16-5.531 28.08 5.925 27.563 22.866" id="Fill-19" fill="#9A7560"/><path d="M28.783 31.93c.783 4.36 3.089 7.582 8.07 6.727 7.81-1.342 26.257-19.143 27.906-20.815 2.075-2.105 4.19-4.377 1.7-7.462-2.82-3.493-9.56-4.396-13.748-5.094-17.782-2.968-26.914 9.96-23.928 26.644" id="Fill-20" fill="#9A7560"/><path d="M90.933 79.125c-.313.122-.592.51-.871.653-.967.496-2.255.635-3.324.661a10.11 10.11 0 01-3.353-.48c-.426-.139-2.63-.861-2.682-1.37.286 2.72 2.297 5.108 4.828 6.147 2.53 1.04 5.479.819 7.98-.29 2.501-1.109 4.576-3.045 6.157-5.278-.698.984-3.74 1.11-4.805 1.071-.734-.026-1.65-.085-2.338-.361-.427-.172-.944-.798-1.413-.791l-.179.038" id="Fill-21" fill="#AC3C4A"/><path d="M84.894 62.27c1.385-1.026 3.827-1.673 6.418-1.834l.01-.001h.012c2.587-.22 5.095.065 6.617.877 7.243 3.871 1.194 10.782-5.687 11.814v.002h-.008l-.011.002v-.002c-6.958-.016-13.953-5.97-7.351-10.859" id="Fill-22" fill="#4D3422"/><path d="M91.728 80.332c.517.063.99-.332 1.057-.883l1.069-8.744c.067-.55-.297-1.049-.814-1.112-.518-.063-.99.332-1.059.883l-1.068 8.745c-.067.55.297 1.048.815 1.111" id="Fill-23" fill="#4D3422"/><path d="M80.052 76.99c.423-.317 1.014-.205 1.315.252.855 1.291 3.592 2.54 4.95 2.719 1.967.259 3.419-.37 4.94-1.41l-.006-.082.077.035.069-.045.005.081c1.657.808 3.185 1.217 5.092.675 1.319-.376 3.844-2.01 4.501-3.414.232-.495.798-.692 1.264-.441.467.251.657.855.426 1.35-1.015 2.17-4.193 4.02-5.687 4.445-.58.166-1.13.262-1.654.3-1.447.107-2.7-.229-3.852-.707-1.07.642-2.26 1.156-3.708 1.262a8.128 8.128 0 01-1.681-.055c-1.54-.202-4.954-1.568-6.274-3.568-.301-.455-.202-1.081.223-1.398" id="Fill-24" fill="#4D3422"/></g><g id="dog-asleep" transform="translate(140 173)"><path d="M75.62 102c-34.069 0-61.68-5.939-61.68-13.268 0-3.345 5.76-6.398 15.246-8.731-.459-.653-.698-1.32-.698-2 0-7.333 27.61-13.272 61.68-13.272 34.06 0 61.671 5.94 61.671 13.272 0 3.343-5.76 6.395-15.246 8.729.459.653.699 1.321.699 2.002 0 7.33-27.612 13.268-61.671 13.268z" id="Clip-148" fill-opacity=".25" fill="#000"/><path d="M110.94 48.857c-3.968-.46 1.986-5.455 3.982-5.726 7.822-1.049 19.513 4.99 25.32 11.054 1.241 1.295 2.473 3.382 1.58 4.94-.875 1.526-2.964 1.156-4.424.354-9.136-5.022-18.473-9.696-26.458-10.622" id="Fill-150" fill="#CBCCD0"/><path d="M54.348 38.5c.193-.243.39-.483.59-.723 7.758-9.294 18.395-13.71 29.647-12.487 10.835 1.177 29.223 8.438 39.845 23.07 8.443 11.63-8.067 34.474-19.31 39.426-4.809 2.12-10.041 2.53-15.18 2.917l-13.215.995c-9.9.746-21.553.636-27.413-8.323-2.14-3.275-3.153-7.35-3.507-11.415-1.125-12.955.812-23.792 8.543-33.46" id="Fill-151" fill="#FFFFFE"/><path d="M121.08 45.145c6 5.267 4.529 9.806 14.937 16.842 2.868 1.94 7.074 3.734 9.868 5.95 3.847 3.05 4.554 5.305 4.62 9.052.096 5.533-6.747 5.25-8.436 4.14-9.515-6.255-21.167-.73-31.723-4.92-2.212-.876-4.412-1.875-6.358-3.409-3.619-2.853-6.129-7.4-7.817-12.222-.611-1.748-1.134-3.578-1.202-5.484-.173-4.852 3.324-13.72 7.4-15.598 6.166-2.84 13.845 1.378 18.711 5.65" id="Fill-152" fill="#FFFFFE"/><path d="M99.564 90.94c-6.216.72-23.674 3.457-25.565-6.786-.86-4.664.352-10.839 1.252-15.426a84.435 84.435 0 012.866-10.785c1.87-5.529 5.256-5.61 10.313-7.17 6.537-2.015 28.62 27.42 24.173 30.296-4.447 2.877-7.955 9.282-13.039 9.87" id="Fill-153" fill="#ABADB3"/><path d="M109.756 54.96c-5.509 5.022-13.567 5.022-13.585 5.618-.148 5.202 4.198 9.369 7.817 12.222 1.946 1.534 4.146 2.533 6.358 3.409 6.939 2.754 14.35 1.31 21.319 1.775-5.999-3.562-18.58-10.899-21.909-23.024" id="Fill-154" fill="#ABADB3"/><path d="M111.228 89.847c1.053-2.127 1.215-4.824.196-6.945-.817-1.7-2.518-3.376-4.128-4.078-1.78-.778-3.84.055-5.78-.055-3.425-.192-7.573-.247-10.93-1.018-4.094-.939-7.434-3.404-11.291-5.13-4.877-2.183-10.342-3.026-15.279-.906-3.92 1.684-9.448 7.257-7.33 12.376 1.96 4.74 8.024 7.215 12.051 8.096 6.042 1.322 12.48 1.244 18.616 1.451a390.8 390.8 0 0012.294.226c3.79.01 7.883.937 10.75-2.696.32-.404.597-.849.831-1.321" id="Fill-155" fill="#FFFFFE"/><path d="M111.424 82.902c-.817-1.7-2.518-3.376-4.128-4.078-1.78-.778-3.84.054-5.78-.054-.873-.05-1.793-.09-2.735-.135 2.205 1.33 3.905 3.858 3.82 5.994-.294 7.37-5.512 8.514-6.13 9.201 1.058.013 2.117.031 3.176.034 3.79.01 7.883.937 10.75-2.696.32-.404.597-.848.831-1.321 1.053-2.127 1.215-4.824.196-6.945" id="Fill-156" fill="#ABADB3"/><path d="M82.453 85.052c3.499-3.929 5.81-9.148 6.623-14.624.21-1.412.322-2.866.068-4.263-.255-1.397-.917-2.743-1.985-3.502-.89-.631-1.98-.809-3.035-.79-2.484.042-4.888 1.087-7.065 2.458-4.612 2.904-8.399 7.274-11.516 12.085-1.801 2.78-6.626 10.466-3.34 13.665.374.362.838.582 1.294.795l2.09.976c2.623 1.225 6.149.063 8.776-1.009 3.024-1.234 5.807-3.229 8.09-5.791" id="Fill-157" fill="#ABADB3"/><path d="M122.577 92.357c3.642 1.327 8.196 1.852 10.69-1.154 1.695-2.045 1.993-5.243 1.118-7.84-.874-2.596-2.886-4.122-5.016-5.512-2.264-1.477-4.884-2.29-7.293-3.526-7.313-3.753-29.259-29.707-34.384-30.888-4.07-.936-11.253.394-11.776 5.9-.484 5.098 6.535 12.558 9.537 15.686 5.463 5.691 11.824 9.4 17.945 13.92 5.417 3.996 10.447 8.922 16.303 12.12.832.453 1.815.908 2.876 1.294" id="Fill-158" fill="#FFFFFE"/><path d="M44.208 77.639c2.962 3.117 9.069 6.581 13.024 7.255 3.766.643 7.59.019 10.52-.872 6.479-1.968 12.004-5.015 14.753-10.143 4.033-7.518 6.525-17.095 2.006-27.532-2.257-5.21-4.838-9.974-10.77-13.95-15.566-10.435-23.791-2.07-30.039 5.496-5.879 7.125-13.101 19.057-5.473 31.063 1.642 2.585 3.687 6.27 5.98 8.683" id="Fill-159" fill="#F26200"/><path d="M14.559 88.013c-4.941-3.939-8.483-10.017-9.61-19.456-1.627-13.607 1.417-28.206 9.38-38.702C22.293 19.36 35.367 13.627 47.2 16.792c7.137 1.907 13.379 6.735 18.843 12.221 7.467 7.498 14.012 16.869 15.953 27.965 4.19 23.946-11.28 39.332-31.043 38.687-12.553-.408-27.003-.165-36.394-7.652" id="Fill-160" fill="#FFFFFE"/><path d="M50.953 95.665c4.15.136 8.104-.444 11.733-1.653.316-2.795-.336-5.668-.997-8.41-.925-3.833-2.012-7.91-4.746-10.399-2.89-2.631-7.086-2.846-10.637-1.51-3.55 1.334-6.58 4.005-9.417 6.772a130.248 130.248 0 00-7.986 8.525c-1.207 1.41-2.406 2.839-3.66 4.202 8.026 2.214 17.294 2.2 25.71 2.473" id="Fill-161" fill="#C17358"/><path d="M56.953 10.376c2.768 3.589 3.771 7.7.134 11.33-5.702 5.694-30.04 9.312-32.276 9.582-2.815.337-5.78.6-6.569-3.576-.893-4.729 2.498-11.026 4.501-15.028C31.255-4.323 46.36-3.35 56.953 10.376" id="Fill-162" fill="#9A7560"/><path d="M25.68 98.709c4.18-.835 7.287-3.315 6.524-8.692-1.197-8.429-18.016-28.368-19.597-30.15-1.991-2.245-4.14-4.531-7.118-1.85-3.372 3.035-4.312 10.305-5.025 14.82-3.036 19.178 9.226 29.058 25.216 25.872" id="Fill-163" fill="#9A7560"/><path d="M81.996 56.978a40.358 40.358 0 00-.311-1.54c-.959-1.237-2.497-2.027-3.899-1.546-.44.151-.874.453-1.05.932-.087.235-.104.492-.102.745.01 2.312 1.455 4.23 2.406 6.27 1.1 2.36 1.556 5.096 1.335 7.762-.116 1.41-1.919 5.215-.82 6.243.378.353.856.34 1.319.135 1.858-5.436 2.378-11.831 1.122-19.001" id="Fill-164" fill="#AC3C4A"/><path d="M70.22 83.206c.028-1.752.839-4.264 2.045-6.672l.004-.008.005-.01c1.167-2.433 2.624-4.544 3.928-5.509 6.213-4.593 7.692 4.253 4.886 10.942h.002l-.004.007-.005.012h-.002c-3.534 6.239-10.99 9.58-10.86 1.238" id="Fill-165" fill="#4D3422"/><path d="M49.054 78.416c1.48-1.533 4.859 3.74 2.69 8.82-2.168 5.08-8.3 7.834-8.598 5.413-.298-2.421 4.239-1.968 5.878-6.455 1.64-4.488-1.449-6.244.03-7.778" id="Fill-166" fill="#0F0F0D"/><path d="M60.34 46.782c1.17-1.842 5.45 2.518 4.255 7.985-1.195 5.466-6.703 9.586-7.438 7.29-.736-2.295 3.794-2.91 4.58-7.674.784-4.764-2.565-5.759-1.397-7.6" id="Fill-167" fill="#0F0F0D"/></g></g></g></svg>