<svg width="780" height="265" xmlns="http://www.w3.org/2000/svg"><style>@font-face{font-family:&quot;TTCommons&quot;;src:url(&quot;https://stately.ai/assets/ttcommons.woff2&quot;) format(&quot;woff2&quot;)}text{font-family:&quot;TTCommons&quot;,Arial,sans-serif;font-variation-settings:&apos;wght&apos; 450}</style><g fill="none" fill-rule="evenodd"><path fill="#E3E9F3" d="M0 0h780v265H0z"/><g transform="translate(323.869 19.667)"><rect fill="#555762" x=".131" y=".333" width="151.19" height="50" rx="15"/><text font-family="TTCommons, Arial, sans-serif" font-size="30" font-weight="400" fill="#FFF"><tspan x="28.506" y="35">waiting</tspan></text></g><path d="M425.046 247c15.663 0 19.954-2.564 19.954-5.38 0-1.764-3.988-3.32-10.087-4.262 5.733-1.162 9.08-2.56 9.08-4.066 0-4.029-23.95-7.292-53.5-7.292-29.543 0-53.493 3.263-53.493 7.292 0 3.768 17.11 7.344 47.099 7.344 2.07 0 4.202-.017 6.393-.052 2.612-.042 5.176-.027 7.688-.076 2.589 3.61 12.787 6.4 25.865 6.488.34.002.672.004 1.001.004" fill-opacity=".25" fill="#000"/><path d="M432.876 208.522c2.484 7.205 9.28 12.769 10.063 20.344.213 2.063-.102 4.287-1.423 5.895-1.784 2.171-5.056 2.695-7.751 1.866-2.697-.829-4.901-2.766-6.787-4.852-5.204-5.757-8.655-13.204-8.961-20.934-.134-3.38.501-7.118 3.114-9.289 2.232-1.854 5.972-2.042 8.494-.592 2.477 1.424 2.422 5.156 3.251 7.562" fill="#ABADB3"/><path d="M349.566 197.212c2.034 3.072-3.643 3.132-5.316 2.405-6.549-2.858-13.747-12.582-15.997-19.793-.48-1.54-.337-3.872.961-4.615 1.27-.728 2.68.585 3.612 1.796 1.999 2.597 14.062 16.164 16.74 20.207" fill="#FFFFFE"/><path d="M344.743 191.914c6.155-5.334 22.717-4.307 25.117-4.157 4.201.266 21.237-6.46 23.257-9.06 4.58-5.898 9.82-7.807 18.063-7.692 5.966.083 11.848 2.786 15.779 7.253 1.894 2.152 3.334 4.665 4.552 7.256 1.488 3.161 2.672 6.758 2.465 10.292-.172 2.941-2.285 5.595-2.1 8.528.52 8.275-3.116 16.4-11.573 22.003-10.756 7.124-23.788 4.61-35.473 2.086-5.035-1.088-6.217-2.9-11.436-2.875-4.852.026-10.576 2.55-15.417 2.175-8.585-.662-16.783 4.236-20.023-4.08-2.843-7.3 1.035-26.742 6.79-31.73" fill="#FFFFFE"/><path d="M358.838 219.417c3.416-3.094 7.245-3.273 11.617-2.97 6.536.45 12.606 4.307 19.285 3.447 6.598-.852 13.216-3.017 19.38-5.396 0 0 8.011 4.641 20.88-.498-1.709 4.783-4.011 10.608-9.164 14.041-7 4.666-17.074 3.746-25.222 4.416-9.278.763-18.622.723-27.892-.126-3.153-.288-8.678-.668-10.823-3.452-2.042-2.653-.264-7.466 1.94-9.462" fill="#ABADB3"/><path d="M394.555 167.255c-2.292 1.734-4.468 5.748-4.527 8.581-.056 2.697-.948 12.895 13.874 19.81 15.69 7.32 30.854 4.015 33.495.206 6.928-9.995-1.358-17.332-8.696-23.085-6.909-5.414-18.133-12.536-27.461-8.659-2.008.835-4.91 1.805-6.685 3.147" fill="#F26200"/><path d="M452.548 128.752c1.303 4.42-.248 8.152-4.152 9.097-6.12 1.483-28.068-8.439-29.953-9.444-2.37-1.268-4.844-2.679-4.388-6.49.518-4.313 7.285-8.592 10.21-10.28 16.083-9.281 23.296.214 28.283 17.117" fill="#9A7560"/><path d="M470.326 160.603c-1.4-5.65-10.748-6.882-15.216-10.152-4.693-3.435-5.457-8.302-8.39-13.162-2.509-4.154-5.14-9.747-9.126-12.673-7.96-5.837-15.91-5.174-24.786-3.233-11.876 2.595-21.474 5.791-28.711 15.846-4.286 5.955-5.573 23.197 5.813 37.058 5.514 6.714 25.902 24.541 52.664 18.473 8.227-1.865 15.45-3.82 23.113-11.3 4.53-4.42 6.445-13.57 4.639-20.857" fill="#FFFFFE"/><path d="M445.916 157.599c1.463-2.653 1.258-5.748.481-8.64-2.132-7.943-12.731-19.62-22.195-22.785-8.694-2.825-16.986.388-26.214 0-2.749-.117-5.27 3.721-8.081 3.748-2.41 2.25-5.677 3.514-7.71 9.468-2.085 6.113-2.148 7.73-2.196 12.108-.062 5.59 3.97 21.511 19.894 32.016 1.209.648.165.648 1.75 0 7.967-3.256 22.557-8.717 31.599-11.98 9.59-3.396 10.126-9.318 12.672-13.935z" fill="#C17358"/><path d="M427.844 150.649c1.536 4.323 4.64 7.089 6.936 6.177 2.295-.91 2.91-5.152 1.376-9.474-1.536-4.323-4.64-7.09-6.936-6.178-2.295.91-2.91 5.153-1.376 9.475" fill="#0F0F0D"/><path d="M365.356 112.5c-3.006 3.367-3.239 9.545-.1 12.911 1.258 1.351 2.879 2.317 4.54 3.132a35.03 35.03 0 004.947 1.976c2.15.675 4.367 1.142 6.485 1.913 4.55 1.655 8.55 4.672 13.226 5.938 5.51 1.492 11.692.29 16.226-3.156 1.29-.98 1.797-2.247 2.17-3.774 1.181-4.864-4.907-13.928-7.603-17.675-14.831-20.614-27.123-15.57-39.891-1.265" fill="#9A7560"/><path d="M458.726 158.092c1.065-1.23 3.123-2.238 5.39-2.782l.008-.002.01-.002c2.253-.601 3.296-.25 4.719.483 4.835 2.494 4.02 10.026-1.903 12.075v.001l-.007.002-.01.003-.001-.002c-6.155 1.01-13.277-3.912-8.206-9.776" fill="#4D3422"/><path d="M456.817 178.975c-.574-.216-1.01-.906-.73-1.45.192-.373.629-.541 1.028-.677.82-.28 6.857-1.531 7.138-3.228.171-1.028.148-2.127.22-3.165l.38-5.46a1.071 1.071 0 011.146-.992c.592.04 1.039.551.998 1.14l-.417 6.001c-.114 1.643.348 4.147-.945 5.453-1.34 1.354-8.244 2.595-8.818 2.378" fill="#4D3422"/><path d="M396.518 231.032c-4.92-7.195-6.422-28.81 7.272-25.734 6.914 1.553 6.948 8.154 8.665 13.96.335 1.134.676 2.281 1.28 3.295 1.106 1.854 2.978 3.085 4.785 4.253 2.61 1.684 5.282 3.396 8.293 4.13 2.778.677 5.68.482 8.539.518 2.858.038 5.837.353 8.25 1.897 2.412 1.546 4.057 4.634 3.14 7.362-.887 2.643-3.823 4.087-6.587 4.262-2.765.175-5.486-.62-8.225-1.035-4.044-.615-8.167-.404-12.236-.816-8.805-.89-18.155-4.751-23.176-12.092" fill="#FFFFFE"/><path d="M419.706 229.26c-.902 1.93-1.022 4.352.123 6.139 1.481 2.309 4.584 2.92 7.234 2.457 2.651-.464 5.093-1.758 7.693-2.461.904-.244 5.389-2.777 6.547-3.148 2.978-.954-4.439-4.295-6.234-5.736-4.817-3.865-12.44-3.507-15.363 2.75" fill="#ABADB3"/><path d="M420.736 227.26c-.94 1.93-1.066 4.352.129 6.14 1.543 2.309 4.778 2.919 7.54 2.456 2.764-.463 5.31-1.758 8.02-2.46.942-.244 1.954-.442 2.67-1.094 2.378-2.165-.472-6.35-2.344-7.791-5.02-3.865-12.968-3.507-16.015 2.75M376.097 206.661c1.36 4.805.644 10.459-2.13 14.32-1.555 2.166-3.639 3.693-5.408 5.614.103-.111 3.974-.343 5.836.934 1.733 1.188 3.257 2.904 3.547 4.99.83 5.974-7.446 6.68-10.552 6.442-15.607-1.19-15.16-7.204-14.483-7.36-4.103.945-7.914 2.235-11.405-1.61-3.114-3.427-4.06-9.003-3.199-13.927 1.326-7.58 5.923-14.173 11.823-17.37 1.91-1.034 3.991-1.992 6.066-2.44 3.738-.808 7.666-2.184 11.376-.33 3.885 1.941 7.188 6.003 8.529 10.737" fill="#FFFFFE"/><path d="M375.694 217.599s8.972-20.1-12.694-21.555c0 0 21.297-2.114 14.75 22.956l-2.056-1.401" fill="#ABADB3"/><path d="M394.234 138.382c-4.63-1.246-8.592-4.215-13.1-5.843-2.097-.759-4.292-1.218-6.423-1.883a34.83 34.83 0 01-4.899-1.944 23.698 23.698 0 01-1.812-.988c.098-.304.206-.605.341-.897 1.064-2.303 3.207-3.976 5.527-5.055 3.666-1.705 7.875-2.106 11.885-1.516 4.007.588 7.828 2.128 11.336 4.13a44.918 44.918 0 0110.754 8.575c.695.755 1.45 1.61 2.157 2.532-4.462 3.219-10.43 4.324-15.766 2.889" fill="#9A7560"/><g transform="translate(284 15)"><path d="M9 9.666c.064 13.333 6.73 20 20 20" stroke="#555762" stroke-width="3"/><path fill="#555762" d="M28 20v20l14-10z"/><circle fill="#555762" cx="10" cy="10" r="10"/></g></g></svg>