<svg width="780" height="1315" xmlns="http://www.w3.org/2000/svg"><style>@font-face{font-family:&quot;TTCommons&quot;;src:url(&quot;https://stately.ai/assets/ttcommons.woff2&quot;) format(&quot;woff2&quot;)}text{font-family:&quot;TTCommons&quot;,Arial,sans-serif;font-variation-settings:&apos;wght&apos; 450}</style><g fill="none" fill-rule="evenodd"><g><path fill="#E3E9F3" d="M0 0h780v1315H0z"/><g transform="translate(59.869 19.667)"><rect fill="#555762" x=".131" y=".333" width="151.19" height="50" rx="15"/><text font-family="TTCommons, Arial, sans-serif" font-size="30" font-weight="400" fill="#FFF"><tspan x="28.506" y="35">waiting</tspan></text></g><g><g transform="translate(520.19 1233.667)"><rect stroke="#555762" stroke-width="7" fill="#555762" x="-3.292" y="-3.167" width="246.792" height="57" rx="15"/><rect stroke="#FFF" stroke-width="3" x="-1.292" y="-1.167" width="242.792" height="53" rx="15"/></g><text font-family="TTCommons, Arial, sans-serif" font-size="30" font-weight="400" fill="#FFF" transform="translate(520.19 1233.667)"><tspan x="24.887" y="35">walk complete</tspan></text></g><g transform="translate(20 15)"><path d="M9 9.666c.064 13.333 6.73 20 20 20" stroke="#555762" stroke-width="3"/><path fill="#555762" d="M28 20v20l14-10z"/><circle fill="#555762" cx="10" cy="10" r="10"/></g><path d="M211.5 45l84.5-.167h74.5c13.333.386 20 7.053 20 20v189.834" stroke="#555762" stroke-width="3"/><path fill="#555762" d="M400 243h-20l10 14z"/><path stroke="#555762" stroke-width="3" d="M640 1058l-.5 169.667"/><path fill="#555762" d="M650 1217h-20l10 14z"/><g><path d="M381.907 1234.827c1.552 1.197 4.985 5.203 5.09 8.018.146 3.969-3.924 3.363-5.725 2.582-7.053-3.068-14.464-13.729-16.888-21.47-.518-1.654-.703-3.934.695-4.733 1.368-.781 2.887.629 3.889 1.928 2.153 2.788 4.126 5.733 6.242 8.552 2.1 2.798 4.029 3.065 6.697 5.123" fill="#CBCCD0"/><path d="M403.003 1292c-27.618 0-50.003-6.714-50.003-14.999 0-8.288 22.385-15.001 50.003-15.001 27.612 0 49.997 6.713 49.997 15.001 0 8.285-22.385 14.999-49.997 14.999z" fill-opacity=".25" fill="#000"/><path d="M374.557 1277.627c4.467-1.053 9.733-2.461 12.966-7.275 3.117-4.644 3.39-13.427.26-18.851-6.737-11.665-19.415-20.344-26.205-6.08-3.17 6.661 1.694 16.173 5.067 21.117-1.846.95-4.043.031-5.581 2.203-1.344 1.898-1.48 5.292-.031 7.26 3.585 4.866 9.503 2.57 13.524 1.626M433.141 1275.877c-4.607-.902-10.035-2.134-13.433-6.949-3.277-4.648-3.709-13.659-.584-19.364 6.72-12.26 19.588-21.693 26.797-7.313 3.37 6.72-1.464 16.69-4.845 21.911 1.914.899 4.152-.13 5.766 2.04 1.415 1.895 1.61 5.373.156 7.452-3.602 5.15-9.714 3.032-13.857 2.223" fill="#CBCCD0"/><path d="M424.197 1220.326c-4.788-10.453-18.307-10.463-25.723-7.94-5.913 2.011-11.47 4.554-14.752 12.495-1.897 4.596-2.195 9.208-1.05 14.246.611 2.696 1.604 5.16 2.291 7.805.571 2.2.337 3.322.527 5.48.568 6.58 3.228 14.507 6.325 19.22.79 1.205 2.703 1.792 3.64 2.874 5.277.49 15.72.657 21.077.31 2.903-3.342 5.035-8.45 6.98-12.804 5.024-11.243 6.6-28.777.685-41.686" fill="#ABADB3"/><path d="M417.667 1228.554s6.887 20.446-3.667 45.897l15.245 3.549s12.603-31.506-3.227-58l-8.351 8.554" fill="#FFFFFE"/><path d="M425.515 1231.908c1.6-2.536 2.092-6.05.55-8.654-.728-1.233-1.834-2.163-2.974-2.98-8.71-6.254-41.761-7.897-37.756 10.972 3.616 17.038 33.546 11.18 40.18.662M411.12 1276.843c-.867 4.373 3.079 8.432 8.812 9.072 5.73.638 11.08-2.386 11.949-6.76.865-4.367-3.078-8.43-8.81-9.07-5.732-.638-11.084 2.386-11.952 6.758" fill="#FFFFFE"/><path d="M390.333 1228.554S383.445 1249 394 1274.451L378.756 1278s-12.604-31.506 3.225-58l8.352 8.554" fill="#FFFFFE"/><path d="M396.88 1276.843c.867 4.373-3.078 8.432-8.812 9.072-5.73.638-11.08-2.386-11.95-6.76-.863-4.367 3.079-8.43 8.81-9.07 5.734-.638 11.085 2.386 11.953 6.758" fill="#FFFFFE"/><path d="M465.77 1204.213c-.537 4.67-2.946 8.255-8.814 7.737-9.204-.812-32.188-18.199-34.25-19.838-2.594-2.065-5.254-4.302-2.618-7.757 2.986-3.91 10.752-5.388 15.561-6.45 20.44-4.517 32.17 8.44 30.12 26.308" fill="#9A7560"/><path d="M421 1190.883a11.266 11.266 0 011.8-2.937c2.37-2.78 5.993-4.32 9.647-4.777 3.654-.457 7.364.076 10.96.866 5.974 1.313 11.913 3.41 16.653 7.231 2.35 1.893 4.409 4.471 5.894 7.34a33.544 33.544 0 01-.178 5.61c-.54 4.669-2.96 8.252-8.86 7.734-9.25-.812-32.353-18.194-34.426-19.833a31.567 31.567 0 01-1.49-1.234M340.23 1204.213c.536 4.67 2.945 8.255 8.814 7.737 9.203-.812 32.188-18.199 34.25-19.838 2.594-2.065 5.254-4.302 2.618-7.757-2.986-3.91-10.752-5.388-15.562-6.45-20.439-4.517-32.169 8.44-30.12 26.308" fill="#9A7560"/><path d="M385 1190.883a11.287 11.287 0 00-1.8-2.937c-2.37-2.78-5.993-4.32-9.648-4.777-3.654-.457-7.363.076-10.958.866-5.975 1.313-11.915 3.41-16.654 7.231-2.35 1.893-4.409 4.471-5.895 7.34a33.462 33.462 0 00.18 5.61c.538 4.669 2.96 8.252 8.859 7.734 9.25-.812 32.353-18.194 34.426-19.833.508-.402 1.017-.81 1.49-1.234" fill="#9A7560"/><path d="M428 1219c0 6.627-10.968 12-24.5 12-13.53 0-24.5-5.373-24.5-12s10.97-12 24.5-12c13.532 0 24.5 5.373 24.5 12" fill="#F26200"/><path d="M440.154 1176.003c-7.256-22.112-25.092-23.358-36.594-22.945l-.06.003-.06-.003c-11.502-.413-29.338.833-36.594 22.945-11.136 33.938 12.419 45.83 35.777 45.997.29 0 .583 0 .877-.003.294.003.588.004.877.003 23.358-.167 46.913-12.06 35.777-45.997" fill="#FFFFFE"/><path d="M417.572 1173c-2.867.806-5.399 2.548-8.264 3.363-2.105.6-4.337.465-6.166-.548v-.153l-.142.076-.143-.076v.153c-1.828 1.013-4.06 1.147-6.166.548-2.864-.815-5.396-2.557-8.264-3.363a78.847 78.847 0 00-.09 15.473c.27 2.925.802 6.04 2.841 8.16 3.045 3.163 7.775 4.387 11.802 4.367 4.031-.02 8.783-1.189 11.841-4.367 2.04-2.12 2.572-5.235 2.842-8.16a78.786 78.786 0 00-.09-15.473" fill="#AC3C4A"/><path d="M393.515 1147.03c2.224-1.373 6.01-2.07 9.97-2.028h.032c3.96-.043 7.744.655 9.967 2.029 10.587 6.555.614 16.182-9.967 16.966v.003h-.032v-.003c-10.581-.784-20.556-10.411-9.97-16.966" fill="#4D3422"/><path d="M403.5 1174c.83 0 1.5-.499 1.5-1.114v-9.772c0-.615-.67-1.114-1.5-1.114s-1.5.499-1.5 1.114v9.772c0 .615.67 1.114 1.5 1.114" fill="#0F0F0D"/><path d="M386.674 1169.224c.653-.448 1.504-.204 1.895.548 1.112 2.128 4.98 4.404 6.949 4.842 2.848.632 5.038-.188 7.375-1.647v-.128l.108.064.106-.064v.128c2.336 1.46 4.527 2.279 7.375 1.647 1.969-.438 5.838-2.714 6.949-4.842.39-.752 1.242-.996 1.895-.548.656.45.87 1.42.479 2.17-1.718 3.292-6.564 5.83-8.794 6.326-.865.194-1.68.28-2.452.28-2.129 0-3.924-.67-5.558-1.555-1.636.884-3.431 1.555-5.558 1.555-.774 0-1.59-.086-2.453-.28-2.23-.495-7.077-3.034-8.794-6.326-.391-.75-.179-1.72.478-2.17" fill="#4D3422"/></g><g><path d="M161.046 237c15.663 0 19.954-2.564 19.954-5.38 0-1.764-3.988-3.32-10.087-4.262 5.733-1.162 9.08-2.56 9.08-4.066 0-4.029-23.95-7.292-53.5-7.292C96.95 216 73 219.263 73 223.292c0 3.768 17.11 7.344 47.099 7.344 2.07 0 4.202-.017 6.393-.052 2.612-.042 5.176-.027 7.688-.076 2.589 3.61 12.787 6.4 25.865 6.488.34.002.672.004 1.001.004" fill-opacity=".25" fill="#000"/><path d="M168.876 198.522c2.484 7.205 9.28 12.769 10.063 20.344.213 2.063-.102 4.287-1.423 5.895-1.784 2.171-5.056 2.695-7.751 1.866-2.697-.829-4.901-2.766-6.787-4.852-5.204-5.757-8.655-13.204-8.961-20.934-.134-3.38.501-7.118 3.114-9.289 2.232-1.854 5.972-2.042 8.494-.592 2.477 1.424 2.422 5.156 3.251 7.562" fill="#ABADB3"/><path d="M85.566 187.212c2.034 3.072-3.643 3.132-5.316 2.405-6.549-2.858-13.747-12.582-15.997-19.793-.48-1.54-.337-3.872.961-4.615 1.27-.728 2.68.585 3.612 1.796 1.999 2.597 14.062 16.164 16.74 20.207" fill="#FFFFFE"/><path d="M80.743 181.914c6.155-5.334 22.717-4.307 25.117-4.157 4.201.266 21.237-6.46 23.257-9.06 4.58-5.898 9.82-7.807 18.063-7.692 5.966.083 11.848 2.786 15.779 7.253 1.894 2.152 3.334 4.665 4.552 7.256 1.488 3.161 2.672 6.758 2.465 10.292-.172 2.941-2.285 5.595-2.1 8.528.52 8.275-3.116 16.4-11.573 22.003-10.756 7.124-23.788 4.61-35.473 2.086-5.035-1.088-6.217-2.9-11.436-2.875-4.852.026-10.576 2.55-15.417 2.175-8.585-.662-16.783 4.236-20.023-4.08-2.843-7.3 1.035-26.742 6.79-31.73" fill="#FFFFFE"/><path d="M94.838 209.417c3.416-3.094 7.245-3.273 11.617-2.97 6.536.45 12.606 4.307 19.285 3.447 6.598-.852 13.216-3.017 19.38-5.396 0 0 8.011 4.641 20.88-.498-1.709 4.783-4.011 10.608-9.164 14.041-7 4.666-17.074 3.746-25.222 4.416-9.278.763-18.622.723-27.892-.126-3.153-.288-8.678-.668-10.823-3.452-2.042-2.653-.264-7.466 1.94-9.462" fill="#ABADB3"/><path d="M130.555 157.255c-2.292 1.734-4.468 5.748-4.527 8.581-.056 2.697-.948 12.895 13.874 19.81 15.69 7.32 30.854 4.015 33.495.206 6.928-9.995-1.358-17.332-8.696-23.085-6.909-5.414-18.133-12.536-27.461-8.659-2.008.835-4.91 1.805-6.685 3.147" fill="#F26200"/><path d="M188.548 118.752c1.303 4.42-.248 8.152-4.152 9.097-6.12 1.483-28.068-8.439-29.953-9.444-2.37-1.268-4.844-2.679-4.388-6.49.518-4.313 7.285-8.592 10.21-10.28 16.083-9.281 23.296.214 28.283 17.117" fill="#9A7560"/><path d="M206.326 150.603c-1.4-5.65-10.748-6.882-15.216-10.152-4.693-3.435-5.457-8.302-8.39-13.162-2.509-4.154-5.14-9.747-9.126-12.673-7.96-5.837-15.91-5.174-24.786-3.233-11.876 2.595-21.474 5.791-28.711 15.846-4.286 5.955-5.573 23.197 5.813 37.058 5.514 6.714 25.902 24.541 52.664 18.473 8.227-1.865 15.45-3.82 23.113-11.3 4.53-4.42 6.445-13.57 4.639-20.857" fill="#FFFFFE"/><path d="M181.916 147.599c1.463-2.653 1.258-5.748.481-8.64-2.132-7.943-12.731-19.62-22.195-22.785-8.694-2.825-16.986.388-26.214 0-2.749-.117-5.27 3.721-8.081 3.748-2.41 2.25-5.677 3.514-7.71 9.468-2.085 6.113-2.148 7.73-2.196 12.108-.062 5.59 3.97 21.511 19.894 32.016 1.209.648.165.648 1.75 0 7.967-3.256 22.557-8.717 31.599-11.98 9.59-3.396 10.126-9.318 12.672-13.935z" fill="#C17358"/><path d="M163.844 140.649c1.536 4.323 4.64 7.089 6.936 6.177 2.295-.91 2.91-5.152 1.376-9.474-1.536-4.323-4.64-7.09-6.936-6.178-2.295.91-2.91 5.153-1.376 9.475" fill="#0F0F0D"/><path d="M101.356 102.5c-3.006 3.367-3.239 9.545-.1 12.911 1.258 1.351 2.879 2.317 4.54 3.132a35.03 35.03 0 004.947 1.976c2.15.675 4.367 1.142 6.485 1.913 4.55 1.655 8.55 4.672 13.226 5.938 5.51 1.492 11.692.29 16.226-3.156 1.29-.98 1.797-2.247 2.17-3.774 1.181-4.864-4.907-13.928-7.603-17.675-14.831-20.614-27.123-15.57-39.891-1.265" fill="#9A7560"/><path d="M194.726 148.092c1.065-1.23 3.123-2.238 5.39-2.782l.008-.002.01-.002c2.253-.601 3.296-.25 4.719.483 4.835 2.494 4.02 10.026-1.903 12.075v.001l-.007.002-.01.003-.001-.002c-6.155 1.01-13.277-3.912-8.206-9.776" fill="#4D3422"/><path d="M192.817 168.975c-.574-.216-1.01-.906-.73-1.45.192-.373.629-.541 1.028-.677.82-.28 6.857-1.531 7.138-3.228.171-1.028.148-2.127.22-3.165l.38-5.46a1.071 1.071 0 011.146-.992c.592.04 1.039.551.998 1.14l-.417 6.001c-.114 1.643.348 4.147-.945 5.453-1.34 1.354-8.244 2.595-8.818 2.378" fill="#4D3422"/><path d="M132.518 221.032c-4.92-7.195-6.422-28.81 7.272-25.734 6.914 1.553 6.948 8.154 8.665 13.96.335 1.134.676 2.281 1.28 3.295 1.106 1.854 2.978 3.085 4.785 4.253 2.61 1.684 5.282 3.396 8.293 4.13 2.778.677 5.68.482 8.539.518 2.858.038 5.837.353 8.25 1.897 2.412 1.546 4.057 4.634 3.14 7.362-.887 2.643-3.823 4.087-6.587 4.262-2.765.175-5.486-.62-8.225-1.035-4.044-.615-8.167-.404-12.236-.816-8.805-.89-18.155-4.751-23.176-12.092" fill="#FFFFFE"/><path d="M155.706 219.26c-.902 1.93-1.022 4.352.123 6.139 1.481 2.309 4.584 2.92 7.234 2.457 2.651-.464 5.093-1.758 7.693-2.461.904-.244 5.389-2.777 6.547-3.148 2.978-.954-4.439-4.295-6.234-5.736-4.817-3.865-12.44-3.507-15.363 2.75" fill="#CBCCD0"/><path d="M156.736 217.26c-.94 1.93-1.066 4.352.129 6.14 1.543 2.309 4.778 2.919 7.54 2.456 2.764-.463 5.31-1.758 8.02-2.46.942-.244 1.954-.442 2.67-1.094 2.378-2.165-.472-6.35-2.344-7.791-5.02-3.865-12.968-3.507-16.015 2.75M112.097 196.661c1.36 4.805.644 10.459-2.13 14.32-1.555 2.166-3.639 3.693-5.408 5.614.103-.111 3.974-.343 5.836.934 1.733 1.188 3.257 2.904 3.547 4.99.83 5.974-7.446 6.68-10.552 6.442-15.607-1.19-15.16-7.204-14.483-7.36-4.103.945-7.914 2.235-11.405-1.61-3.114-3.427-4.06-9.003-3.199-13.927 1.326-7.58 5.923-14.173 11.823-17.37 1.91-1.034 3.991-1.992 6.066-2.44 3.738-.808 7.666-2.184 11.376-.33 3.885 1.941 7.188 6.003 8.529 10.737" fill="#FFFFFE"/><path d="M111.694 207.599s8.972-20.1-12.694-21.555c0 0 21.297-2.114 14.75 22.956l-2.056-1.401" fill="#ABADB3"/></g><g><path d="M678.806 243c-.569 0-1.142-.004-1.726-.012-36.864-.512-66.08-14.938-66.08-19.88 0-4.944 8.996-6.215 36.75-6.215 27.748 0 53.117 10.267 57.735 12.618 9.524 4.847-.235 13.489-26.679 13.489" fill-opacity=".25" fill="#000"/><path d="M638.843 167.723c3.503 2.453-4.335 3.51-6.324 2.695-7.792-3.204-15.979-14.333-18.656-22.414-.572-1.727-.777-4.108.767-4.941 1.51-.816 3.297.583 4.297 2.012 6.263 8.949 12.87 17.713 19.916 22.648" fill="#CBCCD0"/><path d="M651.527 212.216c1.902 4.475 4.66 10.641 9.202 12.999 2.79 1.448 6.171.821 8.295-1.157.603-.56 1.128-1.237 1.37-2.055.24-.818.165-1.796-.343-2.555-.685-1.023-1.965-1.44-2.77-2.372-1.772-2.05-1.263-7.14-1.132-9.528.2-3.636.823-7.19 1.398-10.74.378-2.33.73-4.686.612-7.096-.267-5.396-2.924-10.692-6.502-14.972-4.277-5.114-14.554-10.735-18.821-3.723-1.867 3.068-.492 7.425.216 10.887.979 4.793 1.984 9.586 3.207 14.343 1.39 5.407 3.06 10.777 5.268 15.969" fill="#ABADB3"/><path d="M698.593 179.832a11.598 11.598 0 00-1.557 3.57c-.756 3.054-.563 6.19-.84 9.297-.74 8.33-4.775 14.008-5.488 14.66-2.87 2.626-4.754-2.354-8.073-.633-4.274 2.216-3.022 12.714 7.37 13.309 7.683.442 14.631-10.444 17.276-17.2 2.506-6.4 3.814-16.125 2.262-22.543-.695-2.88-3.087-4.532-6.522-3.773-1.856.411-3.357 1.698-4.428 3.313" fill="#FFFFFE"/><path d="M707.669 187.91c2.079-3.826 2.629-9.188.462-13.226-1.026-1.91-2.552-3.371-4.117-4.66-5.937-4.89-13.71-6.08-21.127-6.79-7.526-.721-16.02-2.124-23.52-3.202-13.155-1.893-25.717 2.684-27.213 5.308-2.29 4.016 1.785 10.304 1.351 14.794-.545 5.648-1.347 12.638 5.364 14.75 2.753.866 5.708.73 8.57 1.115 2.792.377 5.397 1.31 8.062 2.172 2.332.752 4.803.6 7.132 1.412 7.081 2.464 17.037 2.861 24.592 2.236 12-.992 16.055-5.829 20.444-13.908M681.277 205.333c-2.053.777-3.556 2.715-4.042 4.85-.13.575-.195 1.17-.116 1.754.164 1.207.956 2.287 2 2.92 1.045.632 2.317.84 3.531.705 2.046-.23 3.978-1.47 4.932-3.289.87-1.657 1.04-4.403-.45-5.773-1.54-1.416-3.898-1.905-5.855-1.167" fill="#FFFFFE"/><path d="M665.178 196.338c-5.04-1.131-9.96-2.772-15.032-3.746-4.9-.94-10.248-1.098-15.22-.388.87 1.167 2.123 2.107 3.943 2.68 2.753.866 5.708.73 8.57 1.115 2.792.378 5.397 1.31 8.062 2.172 2.332.752 4.803.6 7.132 1.412 7.081 2.464 17.037 2.861 24.592 2.237 7.725-.64 12.155-2.874 15.505-6.54a76.674 76.674 0 01-37.552 1.058" fill="#CBCCD0"/><path d="M671.052 183.562s.924 18.39 11.97 48.093l-12.766 4.105s-16.605-34.1-16.878-61.326l17.674 9.128" fill="#FFFFFE"/><path d="M689.464 232.467c1.94 5.617-3.182 7.6-8.604 8.47-6.99 1.123-9.279-.693-10.686-4.127-1.401-3.428 1.775-7.183 7.102-8.383 5.327-1.2 10.987.556 12.188 4.04M612.284 218.942c.859 1.847 2.204 3.595 6.766 3.27 4.028-.29 4.5-2.478 3.717-4.238-.368-.827-.897-.848-.978-2.282-.457-8.084-.467-9.982 3.737-13.676 1.21-1.063 3.595-.176 5.15-.146 4.622.089 9.066-2.867 11.744-6.816 3-4.423 4.832-9.917 5.5-15.271.569-4.555-.04-10.186-2.438-13.726-2.607-3.85-8.648-3.67-12.377-1.76-3.342 1.715-6.256 4.597-8.724 7.844-13.378 17.6-12.906 45.064-12.097 46.801" fill="#FFFFFE"/><path d="M664.833 159.844c-1.163 3.165-1.239 8.742-.055 11.85 1.126 2.958 3.272 5.552 5.239 7.405 4.348 4.102 9.773 5.96 14.988 6.321 7.644.53 15.597.47 21.832-6.189 3.11-3.323 5.732-6.742 6.285-12.354 1.451-14.73-8.676-18.05-17.317-20.183-8.137-2.005-20.627-3.446-26.746 5.989-1.317 2.03-3.324 4.71-4.226 7.16" fill="#F26200"/><path d="M655.692 121.243c1.549-12.2 17.777-17.841 28.265-20.268 1.886-.436 4.147-.712 6.624-.832 2.467-.243 4.743-.3 6.675-.144 10.729.87 27.606 4.083 30.918 15.926 2.644 9.45-.957 19.755-4.2 29.641-1.48 4.514-3.041 9.074-3.156 13.347-.344 12.693-11.272 21.047-23.1 21.155-11.827.11-24.366-6.143-28.071-17.622-1.312-4.07-3.35-8.242-5.473-12.493-4.651-9.306-9.716-18.976-8.482-28.71" fill="#FFFFFE"/><path d="M669.093 160.834c-1.297-3.557-3.075-7.189-4.92-10.88-4.65-9.307-9.715-18.977-8.48-28.711.631-4.98 3.71-8.865 7.843-11.886 7.256 5.853 17.846 5.088 24.834 11.928 8.217 8.045 5.428 21.632-2.94 28.233-2.785 2.199-6.31 2.74-9.257 4.627-2.606 1.67-4.766 4.49-7.08 6.689" fill="#C17358"/><path d="M670.01 135.508c.339 4.61 2.724 8.191 5.329 8 2.605-.192 4.443-4.082 4.104-8.692-.338-4.608-2.723-8.19-5.329-7.999-2.605.191-4.441 4.083-4.104 8.691M706.66 132.82c.338 4.608 2.724 8.19 5.328 8 2.606-.192 4.444-4.084 4.105-8.693-.338-4.608-2.724-8.19-5.33-8-2.604.192-4.442 4.084-4.104 8.692" fill="#0F0F0D"/><path d="M744.16 115.271c-.136 4.429-1.948 7.952-7 7.833-7.922-.187-28.77-15.105-30.646-16.518-2.36-1.78-4.787-3.719-2.773-7.135 2.283-3.867 8.819-5.745 12.856-7.046 17.16-5.531 28.08 5.925 27.563 22.866M639.783 122.93c.783 4.36 3.089 7.582 8.07 6.727 7.81-1.342 26.257-19.143 27.906-20.815 2.075-2.105 4.19-4.377 1.7-7.462-2.82-3.493-9.56-4.396-13.748-5.094-17.782-2.968-26.914 9.96-23.928 26.644" fill="#9A7560"/><path d="M701.933 170.125c-.313.122-.592.51-.871.653-.967.496-2.255.635-3.324.661a10.11 10.11 0 01-3.353-.48c-.426-.139-2.63-.861-2.682-1.37.286 2.72 2.297 5.108 4.828 6.147 2.53 1.04 5.479.819 7.98-.29 2.501-1.109 4.576-3.045 6.157-5.278-.698.984-3.74 1.11-4.805 1.071-.734-.026-1.65-.085-2.338-.361-.427-.172-.944-.798-1.413-.791l-.179.038" fill="#AC3C4A"/><path d="M695.894 153.27c1.385-1.026 3.827-1.673 6.418-1.834l.01-.001h.012c2.587-.22 5.095.065 6.617.877 7.243 3.871 1.194 10.782-5.687 11.814v.002h-.008l-.011.002v-.002c-6.958-.016-13.953-5.97-7.351-10.859" fill="#4D3422"/><path d="M702.728 171.332c.517.063.99-.332 1.057-.883l1.069-8.744c.067-.55-.297-1.049-.814-1.112-.518-.063-.99.332-1.059.883l-1.068 8.745c-.067.55.297 1.048.815 1.111" fill="#4D3422"/><path d="M691.052 167.99c.423-.317 1.014-.205 1.315.252.855 1.291 3.592 2.54 4.95 2.719 1.967.259 3.419-.37 4.94-1.41l-.006-.082.077.035.069-.045.005.081c1.657.808 3.185 1.217 5.092.675 1.319-.376 3.844-2.01 4.501-3.414.232-.495.798-.692 1.264-.441.467.251.657.855.426 1.35-1.015 2.17-4.193 4.02-5.687 4.445-.58.166-1.13.262-1.654.3-1.447.107-2.7-.229-3.852-.707-1.07.642-2.26 1.156-3.708 1.262a8.128 8.128 0 01-1.681-.055c-1.54-.202-4.954-1.568-6.274-3.568-.301-.455-.202-1.081.223-1.398" fill="#4D3422"/></g><g transform="translate(302.5 140)"><rect fill="#1955DD" width="174.603" height="40" rx="20"/><text font-family="TTCommons, Arial, sans-serif" font-size="24" font-weight="400" fill="#FFF"><tspan x="26.971" y="28">leave home</tspan></text></g><g transform="translate(551.5 1124)"><rect fill="#1955DD" width="174.603" height="40" rx="20"/><text font-family="TTCommons, Arial, sans-serif" font-size="24" font-weight="400" fill="#FFF"><tspan x="25.627" y="28">arrive home</tspan></text></g><rect stroke="#555762" stroke-width="4" fill="#FFF" x="22" y="257" width="736" height="801" rx="20"/><g><path d="M35.83 255h709.36c8.285 0 15 6.716 15 15v35H20.83v-35c0-8.284 6.717-15 15-15z" fill="#555762"/><text font-family="TTCommons, Arial, sans-serif" font-size="30" font-weight="400" fill="#FFF" transform="translate(20.83 254.667)"><tspan x="308.945" y="35">on a walk</tspan></text></g><g><path d="M49 332h682v425H49V332z" stroke="#555762" stroke-width="6" stroke-dasharray="16,11"/><text font-family="TTCommons, Arial, sans-serif" font-size="30" font-weight="400" fill="#555762" transform="translate(49 332)"><tspan x="282.771" y="42">activities</tspan></text></g><g><path d="M49 777h682v250H49V777z" stroke="#555762" stroke-width="6" stroke-dasharray="16,11"/><text font-family="TTCommons, Arial, sans-serif" font-size="30" font-weight="400" fill="#555762" transform="translate(49 777)"><tspan x="321.47" y="37.059">tail</tspan></text></g><g transform="translate(106.869 454.667)"><rect fill="#555762" x=".142" y=".333" width="163.858" height="50" rx="15"/><text font-family="TTCommons, Arial, sans-serif" font-size="30" font-weight="400" fill="#FFF"><tspan x="32.581" y="35">walking</tspan></text></g><g transform="translate(500.19 455.667)"><rect fill="#555762" x=".148" y=".333" width="170.852" height="50" rx="15"/><text font-family="TTCommons, Arial, sans-serif" font-size="30" font-weight="400" fill="#FFF"><tspan x="34.394" y="35">running</tspan></text></g><g transform="translate(175.869 679.667)"><rect fill="#555762" x=".37" y=".333" width="427.63" height="50" rx="15"/><text font-family="TTCommons, Arial, sans-serif" font-size="30" font-weight="400" fill="#FFF"><tspan x="25.133" y="35">stopping to sniff good smells</tspan></text></g><path stroke="#555762" stroke-width="3" d="M248.5 504.5v174"/><g transform="translate(66 448)"><path d="M9 9.666c.064 13.333 6.73 20 20 20" stroke="#555762" stroke-width="3"/><path fill="#555762" d="M28 20v20l14-10z"/><circle fill="#555762" cx="10" cy="10" r="10"/></g><g transform="translate(203.5 540)"><rect fill="#1955DD" width="88.798" height="40" rx="20"/><text font-family="TTCommons, Arial, sans-serif" font-size="24" font-weight="400" fill="#FFF"><tspan x="21.626" y="28">stop</tspan></text></g><path fill="#555762" d="M606 444h-20l10 14zM258 667h-20l10 14z"/><path stroke="#555762" stroke-width="3" d="M521.5 506.5v174"/><path fill="#555762" d="M511 518h20l-10-14zM615 717v-20l-14 10zM130 516h20l-10-14zM285 491v-20l-14 10z"/><path stroke="#555762" stroke-width="3" d="M520.5 481.5h-247"/><g transform="translate(315.5 460)"><rect fill="#1955DD" width="150.658" height="40" rx="20"/><text font-family="TTCommons, Arial, sans-serif" font-size="24" font-weight="400" fill="#FFF"><tspan x="20.467" y="28">slow down</tspan></text></g><path d="M183 455.667V441c.064-13.333 6.73-20 20-20h373.192c13.333.386 20 7.052 20 20v16M666.186 479.66h14.666c13.334.064 20 6.73 20 20v187.032c-.385 13.333-7.052 20-20 20h-78M139.852 504v182.692c.386 13.333 7.052 20 20 20H178" stroke="#555762" stroke-width="3"/><g transform="translate(409.5 600)"><rect fill="#1955DD" width="225.488" height="40" rx="20"/><text font-family="TTCommons, Arial, sans-serif" font-size="24" font-weight="400" fill="#FFF"><tspan x="21.451" y="28">sudden speed up</tspan></text></g><g transform="translate(320.5 400)"><rect fill="#1955DD" width="140.68" height="40" rx="20"/><text font-family="TTCommons, Arial, sans-serif" font-size="24" font-weight="400" fill="#FFF"><tspan x="21.491" y="28">speed up</tspan></text></g><g transform="translate(127.869 894.667)"><rect fill="#555762" x=".178" y=".333" width="205.822" height="50" rx="15"/><text font-family="TTCommons, Arial, sans-serif" font-size="30" font-weight="400" fill="#FFF"><tspan x="21.467" y="35">not wagging</tspan></text></g><g transform="translate(521.19 895.667)"><rect fill="#555762" x=".148" y=".333" width="170.852" height="50" rx="15"/><text font-family="TTCommons, Arial, sans-serif" font-size="30" font-weight="400" fill="#FFF"><tspan x="29.609" y="35">wagging</tspan></text></g><g transform="translate(87 888)"><path d="M9 9.666c.064 13.333 6.73 20 20 20" stroke="#555762" stroke-width="3"/><path fill="#555762" d="M28 20v20l14-10z"/><circle fill="#555762" cx="10" cy="10" r="10"/></g><path fill="#555762" d="M627 884h-20l10 14z"/><path d="M204 895.667V881c.064-13.333 6.73-20 20-20h373.192c13.333.386 20 7.052 20 20v16" stroke="#555762" stroke-width="3"/><g transform="translate(302.5 840)"><rect fill="#1955DD" width="187.574" height="40" rx="20"/><text font-family="TTCommons, Arial, sans-serif" font-size="24" font-weight="400" fill="#FFF"><tspan x="17.811" y="28">wagging starts</tspan></text></g><path fill="#555762" d="M194 957h20l-10-14z"/><path d="M204 946.846v14.667c.064 13.333 6.73 20 20 20h373.192c13.333-.386 20-7.053 20-20v-16" stroke="#555762" stroke-width="3"/><g transform="translate(302.5 961)"><rect fill="#1955DD" width="194.558" height="40" rx="20"/><text font-family="TTCommons, Arial, sans-serif" font-size="24" font-weight="400" fill="#FFF"><tspan x="21.767" y="28">wagging stops</tspan></text></g><g transform="translate(540.5 541)"><rect fill="#1955DD" width="171.61" height="40" rx="20"/><text font-family="TTCommons, Arial, sans-serif" font-size="24" font-weight="400" fill="#FFF"><tspan x="20.587" y="28">sudden stop</tspan></text></g><g transform="translate(79.5 600)"><rect fill="#1955DD" width="140.68" height="40" rx="20"/><text font-family="TTCommons, Arial, sans-serif" font-size="24" font-weight="400" fill="#FFF"><tspan x="21.491" y="28">speed up</tspan></text></g></g></g></svg>