<svg width="780" height="355" xmlns="http://www.w3.org/2000/svg"><style>@font-face{font-family:&quot;TTCommons&quot;;src:url(&quot;https://stately.ai/assets/ttcommons.woff2&quot;) format(&quot;woff2&quot;)}text{font-family:&quot;TTCommons&quot;,Arial,sans-serif;font-variation-settings:&apos;wght&apos; 450}</style><g fill="none" fill-rule="evenodd"><g><path fill="#E3E9F3" d="M0 0h780v355H0z"/><g transform="translate(299.869 82.667)"><rect fill="#555762" x=".173" y=".333" width="199.827" height="50" rx="15"/><text font-family="TTCommons, Arial, sans-serif" font-size="30" font-weight="400" fill="#FFF"><tspan x="45.203" y="35">begging</tspan></text></g><g transform="translate(260 78)"><path d="M9 9.666c.064 13.333 6.73 20 20 20" stroke="#555762" stroke-width="3"/><path fill="#555762" d="M28 20v20l14-10z"/><circle fill="#555762" cx="10" cy="10" r="10"/></g><g><path d="M401.283 333.007c-24.572 0-44.488-3.377-44.488-7.543 0-4.169 19.916-7.544 44.488-7.544 24.566 0 44.481 3.375 44.481 7.544 0 4.166-19.915 7.543-44.481 7.543z" fill-opacity=".25" fill="#000"/><path d="M451.66 295.727c3.362-.248 1.546 8.02 1.145 9.456-1.862 6.68-5.293 13.53-12.035 17.053-2.836 1.483-6.087 2.279-9.29 2.98-.946.207-1.977.097-2.79-.395-5.383-3.252 8.772-11.724 10.706-13.748 2.287-2.39 4.24-5.02 5.982-7.75 1.38-2.161 2.418-5.853 4.9-7.145.537-.28.994-.422 1.381-.45" fill="#FFFFFE"/><path d="M345.946 286.547c3.077 1.119 6.525 1.021 8.95-.839 1.772-1.359 2.504-5.137 3.439-5.227.83-.08 10.882 7.046 15.961 7.653 2.32.277 4.969.008 6.49-1.847.733-.894 1.104-2.043 1.446-3.165a158.649 158.649 0 005.208-23.246c.31-2.113.576-4.28.18-6.376-1.78-9.416-12.247-3.745-14.87 1.955-1.812 3.94-3.59 15.8-3.982 16.007-.379.2-8.041-5.108-13.83-5.595-10.797-.909-11.832 8.317-12.768 12.43-.68 2.993.7 7.131 3.776 8.25M412.667 313.52c-.034-2.72-1.124-5.404-2.569-7.89-3.294-5.672-9.002-11.56-16.089-14.017-6.42-2.225-19.956-3.326-24.498 1.562-.783.842-1.27 1.808-1.633 2.785-2.717 7.28 1.679 15.653 10.48 19.96-3.458.872-7.605 1.987-7.609 6.366-.004 6.078 20.926 5.889 21.461.167.225-2.404.128-2.242-.234-4.444 1.939 2.73 3.22 2.76 6.734 3.869 3.513 1.109 7.67.81 10.442-1.154 1.937-1.373 3.05-3.428 3.397-5.591a9.469 9.469 0 00.118-1.612z" fill="#ABADB3"/><path d="M431.73 325.26c-5.343.899-17.576-.298-22.975.236-7.352.727-30.111-15.5-34.303-53.756-1.404-12.812 7.323-24.573 21.41-28.61 4.54-1.302 17.633-6.266 22.17-3.395 4.31 2.727 8.842 12.526 9.827 19.317 1.678 11.562 2.336 25.083 5.716 32.638 8.448 18.884 10.798 31.443-1.845 33.57" fill="#FFFFFE"/><path d="M428.2 325.573a12.59 12.59 0 00-.854-7.389c-1.065-2.391-2.82-4.428-4.332-6.589-8.714-12.456-9.024-28.39-12.469-43.015-.436-1.856-1.266-6.365-2.63-4.98-1.987 2.016-11.054 13.821-32.896 2.288-.151-.079-.33-.07-.493-.1a24.441 24.441 0 00-.074 5.952c4.192 38.256 26.95 54.483 34.303 53.757 4.414-.438 13.395.296 19.444.076" fill="#ABADB3"/><path d="M418.957 229.08c1.785 1.703 1.38 6.864.959 9.266-.402 2.289-2.335 7.633-14.744 12.56-12.41 4.928-28.047 1.473-29.8-2.02-4.6-9.168 4.133-14.526 11.742-18.642 7.164-3.873 18.52-8.748 26.317-4.51 1.679.91 4.145 2.03 5.526 3.347" fill="#F26200"/><path d="M359.215 175.13c-1.13 4.558-.305 8.665 4.84 9.967 8.07 2.04 33.427-7.316 35.73-8.231 2.897-1.153 5.906-2.448 4.845-6.501-1.201-4.59-7.278-8.347-10.99-10.813-15.777-10.478-30.102-1.86-34.425 15.578" fill="#9A7560"/><path d="M349.202 213.588c.504-2.713 2.387-5.27 4.695-7.593 2.682-2.697 5.937-5.079 8.277-7.025 4.574-3.802 6.981-5.533 9.679-10.684 2.307-4.405 4.652-10.287 8.538-13.526 7.76-6.462 15.893-6.276 25.049-4.841 12.248 1.92 23.634 6.485 31.602 16.32 4.72 5.826 6.735 11.456 4.452 18.842a71.774 71.774 0 01-5.145 12.354c-4.163 7.865-34.306 32.783-61.92 28.235-8.49-1.4-13.497-2.478-20.269-10.647-4.125-4.976-6.363-13.87-4.958-21.435" fill="#FFFFFE"/><path d="M359.826 235.317c1.533 2.004 3.397 3.914 5.807 4.657 2.41.743 5.449-.064 6.534-2.34.932-1.955.22-4.258-.503-6.3-1.712.666-3.525 1.156-5.361 1.103-1.837-.054-3.707-.7-4.972-2.033-.195-.207-.387-.436-.652-.536-.364-.137-.765 0-1.139.103-1.465.405-2.727.11-4.136-.263.366.097.751.889.962 1.166.373.488.75.972 1.128 1.455.779.995 1.564 1.984 2.332 2.988" fill="#AC3C4A"/><path d="M389.02 187.954c-.368-5.45-3.4-10.52-7.69-13.924-.312.238-.627.47-.939.73-3.886 3.239-6.231 9.12-8.538 13.526-2.698 5.151-5.105 6.882-9.68 10.684-2.21 1.838-5.234 4.067-7.822 6.58 3.696-.687 7.14-1.328 9.668-1.157 5.72.39 11.797 1.162 16.907-1.437 5.364-2.728 8.497-8.997 8.093-15.002" fill="#C17358"/><path d="M405.597 207.563c-2.242 4.356-6.034 6.866-8.47 5.605-2.438-1.26-2.594-5.813-.353-10.168 2.242-4.356 6.033-6.866 8.471-5.605 2.435 1.26 2.593 5.812.352 10.168M378.252 196.984c-2.62 3.908-6.269 6.045-8.148 4.774-1.88-1.272-1.277-5.472 1.344-9.38 2.621-3.907 6.27-6.044 8.148-4.773 1.88 1.272 1.276 5.472-1.344 9.379" fill="#0F0F0D"/><path d="M458.36 210.287c-2.137 4.464-5.51 7.266-10.427 4.916-7.708-3.683-21.47-28.114-22.676-30.385-1.517-2.86-3.026-5.908.5-8.509 3.989-2.946 11.266-1.982 15.828-1.532 19.376 1.914 24.94 18.433 16.775 35.51" fill="#9A7560"/><path d="M368.662 213.46c-1.037-1.205-3.076-2.228-5.337-2.813l-.008-.002-.01-.003c-2.246-.64-4.515-.788-6.007-.27-7.112 2.47-3.034 10.044 2.856 12.171l-.001.003.008.001.01.004.001-.002c6.15 1.144 13.424-3.346 8.488-9.09M352.477 226.528a.928.928 0 01.423-.14c.551-.053.81.452 1.146.79.468.466 1.038.9 1.62 1.205 1.872.981 3.552.917 5.453.482l.024-.081.062.062.087-.018-.024.081c1.362 1.395 2.74 2.358 4.844 2.547 1.455.13 4.576-.504 5.745-1.611a.991.991 0 011.425.046c.374.417.344 1.07-.068 1.46-1.807 1.713-5.657 2.31-7.306 2.163a9.117 9.117 0 01-1.764-.329c-1.485-.436-2.614-1.227-3.593-2.116-1.304.218-2.68.27-4.166-.166a9.039 9.039 0 01-1.66-.68c-.817-.428-1.968-1.15-2.46-1.958-.33-.539-.318-1.398.212-1.737" fill="#4D3422"/><path d="M360.749 231.089c.272.097.582.085.862-.06.537-.282.758-.953.495-1.499-.028-.06-1.294-2.852-.852-8.283.048-.615-.397-1.149-.995-1.19-.602-.042-1.128.424-1.179 1.038-.5 6.149 1.005 9.318 1.07 9.451.128.264.348.451.599.543" fill="#4D3422"/><path d="M376.674 283.183c.832.443 1.867.755 3.138.9 1.762.204 3.548-.188 5.108-.982 1.638-.834 2.618-2.835 4.158-3.537 1.59-.724 3.744 1.194 5.159 1.987 1.94 1.085 3.895 2.178 6.034 2.893 4.909 1.643 10.821 2.47 13.657-2.41 3.694-6.357 4.52-15.831 5.63-22.865.318-2.015-9.207-7.887-12.898-3.074-3.216 4.195-4.389 7.708-5.453 11.747-.112.424-5.895-4.519-13.006-5.734-4.75-.811-7.642 2.045-10.07 5.314-3.221 4.34-7.19 12.71-1.457 15.76" fill="#ABADB3"/><path d="M379.493 286.358c.833.443 1.868.755 3.138.901 1.762.203 3.548-.19 5.108-.982 1.64-.835 2.618-2.837 4.159-3.538 1.59-.724 3.743 1.195 5.159 1.986 1.94 1.086 3.895 2.178 6.033 2.895 4.91 1.642 10.27 3.943 13.107-.938 3.694-6.356 5.072-17.304 6.18-24.339.319-2.013.592-4.078.184-6.077-1.829-8.978-12.58-3.572-15.275 1.863-1.862 3.757-2.138 8.045-3.203 12.083-.112.424-.27.894-.673 1.092-.39.191-.858.054-1.26-.11-3.824-1.56-6.533-5.313-10.576-6.218-4.045-.906-8.268 1.447-10.696 4.717-3.221 4.338-7.118 13.613-1.385 16.665" fill="#ABADB3"/><path d="M416.196 285.218s11.25 4.139 12.796 11.46c0 0-11.258-8.648-15.488-8.665l2.692-2.795" fill="#ABADB3"/><path d="M436.02 307.13c-2.612-6.817-7.457-12.42-14.31-16.836-5.726-3.69-18.926-5.946-23.976-.462-.87.945-1.459 2.05-1.928 3.173-3.49 8.373-.018 18.38 8.279 23.86-3.536.844-8.135 2.08-8.261 7.056-.212 8.428 18.972 7.408 21.636 2.307 1.263-2.417-.359-6.513-1.381-9.043 1.635 3.29 4.247 6.197 7.625 7.671 3.378 1.474 7.55 1.334 10.52-.821 2.078-1.508 5.3-7.764 1.797-16.905" fill="#FFFFFE"/><path d="M378.094 284.96c.833.442 1.869.754 3.138.9 1.763.203 3.549-.189 5.109-.983 1.638-.833 2.618-2.835 4.158-3.536 1.59-.724 3.744 1.194 5.16 1.986 1.939 1.085 3.895 2.178 6.032 2.894 4.91 1.643 10.823 2.47 13.658-2.411 3.694-6.357 4.521-15.832 5.63-22.864.318-2.015.591-4.08.184-6.08-1.829-8.976-12.58-3.57-15.275 1.865-1.863 3.757-3.33 15.417-3.733 15.614-.389.191-9.018-6.556-13.06-7.462-4.045-.907-7.187.142-9.615 3.412-3.222 4.338-7.118 13.613-1.386 16.664" fill="#FFFFFE"/></g><path d="M319 82.667V71c.064-13.333 6.73-20 20-20h123c13.333.386 20 7.052 20 20v11.667" stroke="#555762" stroke-width="3"/><path fill="#555762" d="M492 72h-20l10 14z"/><g transform="translate(326 20)"><rect fill="#1955DD" width="148.662" height="40" rx="20"/><text font-family="TTCommons, Arial, sans-serif" font-size="24" font-weight="400" fill="#FFF"><tspan x="24.159" y="28">gets treat</tspan></text></g></g></g></svg>