<svg width="780" height="420" xmlns="http://www.w3.org/2000/svg"><style>@font-face{font-family:&quot;TTCommons&quot;;src:url(&quot;https://stately.ai/assets/ttcommons.woff2&quot;) format(&quot;woff2&quot;)}text{font-family:&quot;TTCommons&quot;,Arial,sans-serif;font-variation-settings:&apos;wght&apos; 450}</style><g fill="none" fill-rule="evenodd"><path fill="#E3E9F3" d="M0 0h780v479H0z"/><path d="M210 100V60c.064-13.334 6.73-20 20-20h315c13.333.385 20 7.052 20 20v39.667M210 150v39.666c.064 13.334 6.73 20 20 20h315c13.333-.385 20-7.052 20-20V150" stroke="#555762" stroke-width="3"/><g transform="translate(488.869 99.667)"><rect fill="#555762" x=".131" y=".333" width="151.19" height="50" rx="15"/><text font-family="TTCommons, Arial, sans-serif" font-size="30" font-weight="400" fill="#FFF"><tspan x="34.326" y="35">awake</tspan></text></g><g transform="translate(139.869 99.667)"><rect fill="#555762" x=".131" y=".333" width="151.19" height="50" rx="15"/><text font-family="TTCommons, Arial, sans-serif" font-size="30" font-weight="400" fill="#FFF"><tspan x="32.451" y="35">asleep</tspan></text></g><path d="M565.806 399.558c-.569 0-1.142-.005-1.726-.013-36.864-.511-66.08-14.938-66.08-19.88 0-4.944 8.996-6.215 36.75-6.215 27.748 0 53.117 10.267 57.735 12.618 9.524 4.847-.235 13.49-26.679 13.49" fill-opacity=".25" fill="#000"/><path d="M525.843 324.28c3.503 2.453-4.335 3.511-6.324 2.696-7.792-3.204-15.979-14.333-18.656-22.414-.572-1.727-.777-4.108.767-4.941 1.51-.816 3.297.582 4.297 2.012 6.263 8.948 12.87 17.713 19.916 22.648" fill="#CBCCD0"/><path d="M538.527 368.773c1.902 4.476 4.66 10.642 9.202 13 2.79 1.448 6.171.82 8.295-1.158.603-.56 1.128-1.237 1.37-2.055.24-.818.165-1.795-.343-2.554-.685-1.023-1.965-1.441-2.77-2.373-1.772-2.05-1.263-7.14-1.132-9.527.2-3.636.823-7.19 1.398-10.74.378-2.33.73-4.687.612-7.096-.267-5.397-2.924-10.693-6.502-14.973-4.277-5.113-14.554-10.735-18.821-3.722-1.867 3.068-.492 7.424.216 10.887.979 4.792 1.984 9.585 3.207 14.342 1.39 5.408 3.06 10.778 5.268 15.97" fill="#ABADB3"/><path d="M585.593 336.39a11.598 11.598 0 00-1.557 3.57c-.756 3.053-.563 6.19-.84 9.297-.74 8.329-4.775 14.007-5.488 14.66-2.87 2.626-4.754-2.354-8.073-.633-4.274 2.216-3.022 12.713 7.37 13.309 7.683.441 14.631-10.445 17.276-17.2 2.506-6.4 3.814-16.125 2.262-22.543-.695-2.881-3.087-4.533-6.522-3.773-1.856.41-3.357 1.697-4.428 3.313" fill="#FFFFFE"/><path d="M594.669 344.468c2.079-3.827 2.629-9.188.462-13.226-1.026-1.91-2.552-3.372-4.117-4.66-5.937-4.89-13.71-6.08-21.127-6.79-7.526-.722-16.02-2.124-23.52-3.203-13.155-1.893-25.717 2.685-27.213 5.308-2.29 4.017 1.785 10.305 1.351 14.795-.545 5.647-1.347 12.637 5.364 14.749 2.753.866 5.708.73 8.57 1.116 2.792.377 5.397 1.31 8.062 2.171 2.332.752 4.803.601 7.132 1.412 7.081 2.464 17.037 2.862 24.592 2.237 12-.993 16.055-5.829 20.444-13.909M568.277 361.891c-2.053.776-3.556 2.715-4.042 4.85-.13.574-.195 1.17-.116 1.753.164 1.208.956 2.287 2 2.92 1.045.633 2.317.84 3.531.705 2.046-.23 3.978-1.47 4.932-3.288.87-1.658 1.04-4.403-.45-5.773-1.54-1.417-3.898-1.906-5.855-1.167" fill="#FFFFFE"/><path d="M552.178 352.895c-5.04-1.13-9.96-2.772-15.032-3.745-4.9-.941-10.248-1.098-15.22-.388.87 1.166 2.123 2.106 3.943 2.679 2.753.867 5.708.73 8.57 1.116 2.792.378 5.397 1.31 8.062 2.171 2.332.752 4.803.601 7.132 1.412 7.081 2.464 17.037 2.862 24.592 2.237 7.725-.639 12.155-2.873 15.505-6.539a76.674 76.674 0 01-37.552 1.057" fill="#CBCCD0"/><path d="M558.052 340.12s.924 18.39 11.97 48.092l-12.766 4.106s-16.605-34.1-16.878-61.326l17.674 9.128" fill="#FFFFFE"/><path d="M576.464 389.024c1.94 5.617-3.182 7.6-8.604 8.471-6.99 1.123-9.279-.694-10.686-4.128-1.401-3.427 1.775-7.182 7.102-8.383 5.327-1.199 10.987.556 12.188 4.04M499.284 375.5c.859 1.847 2.204 3.595 6.766 3.269 4.028-.289 4.5-2.477 3.717-4.237-.368-.827-.897-.848-.978-2.282-.457-8.084-.467-9.983 3.737-13.676 1.21-1.063 3.595-.176 5.15-.147 4.622.09 9.066-2.867 11.744-6.816 3-4.423 4.832-9.917 5.5-15.27.569-4.556-.04-10.187-2.438-13.727-2.607-3.85-8.648-3.67-12.377-1.759-3.342 1.714-6.256 4.596-8.724 7.843-13.378 17.601-12.906 45.064-12.097 46.802" fill="#FFFFFE"/><path d="M551.833 316.401c-1.163 3.166-1.239 8.743-.055 11.85 1.126 2.958 3.272 5.552 5.239 7.406 4.348 4.102 9.773 5.96 14.988 6.32 7.644.53 15.597.47 21.832-6.188 3.11-3.324 5.732-6.742 6.285-12.355 1.451-14.73-8.676-18.05-17.317-20.183-8.137-2.005-20.627-3.445-26.746 5.99-1.317 2.03-3.324 4.709-4.226 7.16" fill="#F26200"/><path d="M542.692 277.8c1.549-12.199 17.777-17.84 28.265-20.267 1.886-.436 4.147-.713 6.624-.833 2.467-.242 4.743-.3 6.675-.143 10.729.87 27.606 4.083 30.918 15.926 2.644 9.449-.957 19.755-4.2 29.64-1.48 4.515-3.041 9.074-3.156 13.348-.344 12.693-11.272 21.046-23.1 21.155-11.827.109-24.366-6.143-28.071-17.622-1.312-4.07-3.35-8.243-5.473-12.493-4.651-9.306-9.716-18.977-8.482-28.71" fill="#FFFFFE"/><path d="M556.093 317.391c-1.297-3.556-3.075-7.188-4.92-10.88-4.65-9.306-9.715-18.977-8.48-28.71.631-4.98 3.71-8.866 7.843-11.887 7.256 5.854 17.846 5.089 24.834 11.929 8.217 8.044 5.428 21.632-2.94 28.232-2.785 2.2-6.31 2.74-9.257 4.627-2.606 1.67-4.766 4.491-7.08 6.69" fill="#C17358"/><path d="M557.01 292.066c.339 4.61 2.724 8.19 5.329 8 2.605-.192 4.443-4.083 4.104-8.692-.338-4.609-2.723-8.19-5.329-8-2.605.192-4.441 4.083-4.104 8.692M593.66 289.377c.338 4.609 2.724 8.19 5.328 8 2.606-.191 4.444-4.083 4.105-8.692-.338-4.609-2.724-8.19-5.33-8-2.604.192-4.442 4.083-4.104 8.692" fill="#0F0F0D"/><path d="M631.16 271.829c-.136 4.428-1.948 7.951-7 7.833-7.922-.188-28.77-15.105-30.646-16.519-2.36-1.78-4.787-3.718-2.773-7.134 2.283-3.867 8.819-5.745 12.856-7.046 17.16-5.532 28.08 5.925 27.563 22.866M526.783 279.487c.783 4.361 3.089 7.583 8.07 6.728 7.81-1.342 26.257-19.143 27.906-20.815 2.075-2.106 4.19-4.377 1.7-7.463-2.82-3.492-9.56-4.396-13.748-5.094-17.782-2.967-26.914 9.96-23.928 26.644" fill="#9A7560"/><path d="M588.933 326.682c-.313.123-.592.51-.871.653-.967.496-2.255.635-3.324.662a10.11 10.11 0 01-3.353-.48c-.426-.14-2.63-.862-2.682-1.37.286 2.72 2.297 5.107 4.828 6.147 2.53 1.04 5.479.818 7.98-.29 2.501-1.11 4.576-3.045 6.157-5.279-.698.985-3.74 1.11-4.805 1.072-.734-.027-1.65-.086-2.338-.362-.427-.171-.944-.797-1.413-.79l-.179.037" fill="#AC3C4A"/><path d="M582.894 309.827c1.385-1.025 3.827-1.673 6.418-1.834h.01l.012-.001c2.587-.22 5.095.066 6.617.877 7.243 3.872 1.194 10.783-5.687 11.815v.002h-.008l-.011.001v-.002c-6.958-.016-13.953-5.97-7.351-10.858" fill="#4D3422"/><path d="M589.728 327.89c.517.063.99-.333 1.057-.883l1.069-8.744c.067-.551-.297-1.049-.814-1.113-.518-.063-.99.333-1.059.883l-1.068 8.746c-.067.55.297 1.048.815 1.11" fill="#4D3422"/><path d="M578.052 324.547c.423-.317 1.014-.205 1.315.252.855 1.292 3.592 2.54 4.95 2.72 1.967.258 3.419-.37 4.94-1.41l-.006-.083.077.036.069-.045.005.08c1.657.809 3.185 1.217 5.092.675 1.319-.375 3.844-2.01 4.501-3.413.232-.496.798-.693 1.264-.442.467.252.657.856.426 1.35-1.015 2.171-4.193 4.021-5.687 4.446-.58.165-1.13.261-1.654.3-1.447.106-2.7-.229-3.852-.707-1.07.641-2.26 1.155-3.708 1.262a8.128 8.128 0 01-1.681-.055c-1.54-.202-4.954-1.568-6.274-3.568-.301-.456-.202-1.082.223-1.398" fill="#4D3422"/><g><path d="M215.62 400c-34.069 0-61.68-5.939-61.68-13.268 0-3.345 5.76-6.398 15.246-8.731-.459-.653-.698-1.32-.698-2 0-7.333 27.61-13.272 61.68-13.272 34.06 0 61.671 5.94 61.671 13.272 0 3.343-5.76 6.395-15.246 8.729.459.653.699 1.321.699 2.002 0 7.33-27.612 13.268-61.671 13.268z" fill-opacity=".25" fill="#000"/><path d="M250.94 346.857c-3.968-.46 1.986-5.455 3.982-5.726 7.822-1.049 19.513 4.99 25.32 11.054 1.241 1.295 2.473 3.382 1.58 4.94-.875 1.526-2.964 1.156-4.424.354-9.136-5.022-18.473-9.696-26.458-10.622" fill="#CBCCD0"/><path d="M194.348 336.5c.193-.243.39-.483.59-.723 7.758-9.294 18.395-13.71 29.647-12.487 10.835 1.177 29.223 8.438 39.845 23.07 8.443 11.63-8.067 34.474-19.31 39.426-4.809 2.12-10.041 2.53-15.18 2.917l-13.215.995c-9.9.746-21.553.636-27.413-8.323-2.14-3.275-3.153-7.35-3.507-11.415-1.125-12.955.812-23.792 8.543-33.46" fill="#FFFFFE"/><path d="M261.08 343.145c6 5.267 4.529 9.806 14.937 16.842 2.868 1.94 7.074 3.734 9.868 5.95 3.847 3.05 4.554 5.305 4.62 9.052.096 5.533-6.747 5.25-8.436 4.14-9.515-6.255-21.167-.73-31.723-4.92-2.212-.876-4.412-1.875-6.358-3.409-3.619-2.853-6.129-7.4-7.817-12.222-.611-1.748-1.134-3.578-1.202-5.484-.173-4.852 3.324-13.72 7.4-15.598 6.166-2.84 13.845 1.378 18.711 5.65" fill="#FFFFFE"/><path d="M239.564 388.94c-6.216.72-23.674 3.457-25.565-6.786-.86-4.664.352-10.839 1.252-15.426a84.435 84.435 0 012.866-10.785c1.87-5.529 5.256-5.61 10.313-7.17 6.537-2.015 28.62 27.42 24.173 30.296-4.447 2.877-7.955 9.282-13.039 9.87" fill="#ABADB3"/><path d="M249.756 352.96c-5.509 5.022-13.567 5.022-13.585 5.618-.148 5.202 4.198 9.369 7.817 12.222 1.946 1.534 4.146 2.533 6.358 3.409 6.939 2.754 14.35 1.31 21.319 1.775-5.999-3.562-18.58-10.899-21.909-23.024" fill="#ABADB3"/><path d="M251.228 387.847c1.053-2.127 1.215-4.824.196-6.945-.817-1.7-2.518-3.376-4.128-4.078-1.78-.778-3.84.055-5.78-.055-3.425-.192-7.573-.247-10.93-1.018-4.094-.939-7.434-3.404-11.291-5.13-4.877-2.183-10.342-3.026-15.279-.906-3.92 1.684-9.448 7.257-7.33 12.376 1.96 4.74 8.024 7.215 12.051 8.096 6.042 1.322 12.48 1.244 18.616 1.451a390.8 390.8 0 0012.294.226c3.79.01 7.883.937 10.75-2.696.32-.404.597-.849.831-1.321" fill="#FFFFFE"/><path d="M251.424 380.902c-.817-1.7-2.518-3.376-4.128-4.078-1.78-.778-3.84.054-5.78-.054-.873-.05-1.793-.09-2.735-.135 2.205 1.33 3.905 3.858 3.82 5.994-.294 7.37-5.512 8.514-6.13 9.201 1.058.013 2.117.031 3.176.034 3.79.01 7.883.937 10.75-2.696.32-.404.597-.848.831-1.321 1.053-2.127 1.215-4.824.196-6.945" fill="#ABADB3"/><path d="M222.453 383.052c3.499-3.929 5.81-9.148 6.623-14.624.21-1.412.322-2.866.068-4.263-.255-1.397-.917-2.743-1.985-3.502-.89-.631-1.98-.809-3.035-.79-2.484.042-4.888 1.087-7.065 2.458-4.612 2.904-8.399 7.274-11.516 12.085-1.801 2.78-6.626 10.466-3.34 13.665.374.362.838.582 1.294.795l2.09.976c2.623 1.225 6.149.063 8.776-1.009 3.024-1.234 5.807-3.229 8.09-5.791" fill="#CBCCD0"/><path d="M262.577 390.357c3.642 1.327 8.196 1.852 10.69-1.154 1.695-2.045 1.993-5.243 1.118-7.84-.874-2.596-2.886-4.122-5.016-5.512-2.264-1.477-4.884-2.29-7.293-3.526-7.313-3.753-29.259-29.707-34.384-30.888-4.07-.936-11.253.394-11.776 5.9-.484 5.098 6.535 12.558 9.537 15.686 5.463 5.691 11.824 9.4 17.945 13.92 5.417 3.996 10.447 8.922 16.303 12.12.832.453 1.815.908 2.876 1.294" fill="#FFFFFE"/><path d="M184.208 375.639c2.962 3.117 9.069 6.581 13.024 7.255 3.766.643 7.59.019 10.52-.872 6.479-1.968 12.004-5.015 14.753-10.143 4.033-7.518 6.525-17.095 2.006-27.532-2.257-5.21-4.838-9.974-10.77-13.95-15.566-10.435-23.791-2.07-30.039 5.496-5.879 7.125-13.101 19.057-5.473 31.063 1.642 2.585 3.687 6.27 5.98 8.683" fill="#F26200"/><path d="M154.559 386.013c-4.941-3.939-8.483-10.017-9.61-19.456-1.627-13.607 1.417-28.206 9.38-38.702 7.964-10.495 21.038-16.228 32.871-13.063 7.137 1.907 13.379 6.735 18.843 12.221 7.467 7.498 14.012 16.869 15.953 27.965 4.19 23.946-11.28 39.332-31.043 38.687-12.553-.408-27.003-.165-36.394-7.652" fill="#FFFFFE"/><path d="M190.953 393.665c4.15.136 8.104-.444 11.733-1.653.316-2.795-.336-5.668-.997-8.41-.925-3.833-2.012-7.91-4.746-10.399-2.89-2.631-7.086-2.846-10.637-1.51-3.55 1.334-6.58 4.005-9.417 6.772a130.248 130.248 0 00-7.986 8.525c-1.207 1.41-2.406 2.839-3.66 4.202 8.026 2.214 17.294 2.2 25.71 2.473" fill="#C17358"/><path d="M196.953 308.376c2.768 3.589 3.771 7.7.134 11.33-5.702 5.694-30.04 9.312-32.276 9.582-2.815.337-5.78.6-6.569-3.576-.893-4.729 2.498-11.026 4.501-15.028 8.512-17.007 23.616-16.033 34.21-2.308M165.68 396.709c4.18-.835 7.287-3.315 6.524-8.692-1.197-8.429-18.016-28.368-19.597-30.15-1.991-2.245-4.14-4.531-7.118-1.85-3.372 3.035-4.312 10.305-5.025 14.82-3.036 19.178 9.226 29.058 25.216 25.872" fill="#9A7560"/><path d="M221.996 354.978a40.358 40.358 0 00-.311-1.54c-.959-1.237-2.497-2.027-3.899-1.546-.44.151-.874.453-1.05.932-.087.235-.104.492-.102.745.01 2.312 1.455 4.23 2.406 6.27 1.1 2.36 1.556 5.096 1.335 7.762-.116 1.41-1.919 5.215-.82 6.243.378.353.856.34 1.319.135 1.858-5.436 2.378-11.831 1.122-19.001" fill="#AC3C4A"/><path d="M210.22 381.206c.028-1.752.839-4.264 2.045-6.672l.004-.008.005-.01c1.167-2.433 2.624-4.544 3.928-5.509 6.213-4.593 7.692 4.253 4.886 10.942h.002l-.004.007-.005.012h-.002c-3.534 6.239-10.99 9.58-10.86 1.238" fill="#4D3422"/><path d="M189.054 376.416c1.48-1.533 4.859 3.74 2.69 8.82-2.168 5.08-8.3 7.834-8.598 5.413-.298-2.421 4.239-1.968 5.878-6.455 1.64-4.488-1.449-6.244.03-7.778M200.34 344.782c1.17-1.842 5.45 2.518 4.255 7.985-1.195 5.466-6.703 9.586-7.438 7.29-.736-2.295 3.794-2.91 4.58-7.674.784-4.764-2.565-5.759-1.397-7.6" fill="#0F0F0D"/></g><g transform="translate(309.5 20)"><rect fill="#1955DD" width="160.635" height="40" rx="20"/><text font-family="TTCommons, Arial, sans-serif" font-size="24" font-weight="400" fill="#FFF"><tspan x="31.839" y="27">wakes up</tspan></text></g><g transform="translate(300.5 189)"><rect fill="#1955DD" width="180.59" height="40" rx="20"/><text font-family="TTCommons, Arial, sans-serif" font-size="24" font-weight="400" fill="#FFF"><tspan x="32.587" y="28">falls asleep</tspan></text></g><path fill="#555762" d="M575 88h-20l10 14zM200 162h20l-10-14z"/></g></svg>